<svg xmlns="http://www.w3.org/2000/svg" width="9" height="16" viewBox="0 0 9 16" fill="none">
<path d="M3.81586 8.05078H5.02875V6.83203H3.81586V8.05078ZM3.81586 8.66016V9.35742C3.81586 9.70898 3.6889 10.0098 3.435 10.2598C3.18109 10.5098 2.87445 10.6348 2.51508 10.6348C2.15961 10.6348 1.85492 10.5098 1.60101 10.2598C1.35101 10.0059 1.22601 9.69922 1.22601 9.33984C1.22601 8.98828 1.35101 8.68555 1.60101 8.43164C1.85492 8.17773 2.1557 8.05078 2.50336 8.05078H3.20648V6.83203H2.50336C2.1557 6.83203 1.85492 6.70508 1.60101 6.45117C1.35101 6.19727 1.22601 5.89258 1.22601 5.53711C1.22601 5.18164 1.35101 4.87891 1.60101 4.62891C1.85492 4.375 2.15961 4.24805 2.51508 4.24805C2.87445 4.24805 3.18109 4.37305 3.435 4.62305C3.6889 4.87305 3.81586 5.17383 3.81586 5.52539V6.22266H5.02875V5.52539C5.02875 5.17383 5.1557 4.87305 5.40961 4.62305C5.66351 4.37305 5.97015 4.24805 6.32953 4.24805C6.6889 4.24805 6.99359 4.375 7.24359 4.62891C7.49359 4.87891 7.61859 5.18164 7.61859 5.53711C7.61859 5.89258 7.49359 6.19727 7.24359 6.45117C6.99359 6.70508 6.69281 6.83203 6.34125 6.83203H5.63812V8.05078H6.34125C6.69281 8.05078 6.99359 8.17773 7.24359 8.43164C7.49359 8.68555 7.61859 8.98828 7.61859 9.33984C7.61859 9.69922 7.49359 10.0059 7.24359 10.2598C6.99359 10.5098 6.6889 10.6348 6.32953 10.6348C5.97015 10.6348 5.66351 10.5098 5.40961 10.2598C5.1557 10.0098 5.02875 9.70898 5.02875 9.35742V8.66016H3.81586ZM3.20648 6.22266V5.53711C3.20648 5.34961 3.13812 5.18945 3.0014 5.05664C2.86859 4.91992 2.70648 4.85156 2.51508 4.85156C2.33148 4.85156 2.17133 4.91992 2.03461 5.05664C1.90179 5.18945 1.83539 5.34961 1.83539 5.53711C1.83539 5.72461 1.90179 5.88672 2.03461 6.02344C2.17133 6.15625 2.33344 6.22266 2.52094 6.22266H3.20648ZM3.20648 8.66016H2.52094C2.33344 8.66016 2.17133 8.72852 2.03461 8.86523C1.90179 8.99805 1.83539 9.15625 1.83539 9.33984C1.83539 9.53125 1.90179 9.69531 2.03461 9.83203C2.17133 9.96484 2.33344 10.0312 2.52094 10.0312C2.70844 10.0312 2.86859 9.96484 3.0014 9.83203C3.13812 9.69531 3.20648 9.5332 3.20648 9.3457V8.66016ZM5.63812 6.22266H6.32953C6.51312 6.22266 6.67133 6.15625 6.80414 6.02344C6.94086 5.88672 7.00922 5.72461 7.00922 5.53711C7.00922 5.34961 6.94281 5.18945 6.81 5.05664C6.67719 4.91992 6.51508 4.85156 6.32367 4.85156C6.13617 4.85156 5.97406 4.91992 5.83734 5.05664C5.70453 5.18945 5.63812 5.34961 5.63812 5.53711V6.22266ZM5.63812 8.66016V9.3457C5.63812 9.5332 5.70453 9.69531 5.83734 9.83203C5.97406 9.96484 6.13617 10.0312 6.32367 10.0312C6.51508 10.0312 6.67719 9.96484 6.81 9.83203C6.94281 9.69531 7.00922 9.53125 7.00922 9.33984C7.00922 9.15625 6.94086 8.99805 6.80414 8.86523C6.67133 8.72852 6.51312 8.66016 6.32953 8.66016H5.63812Z" fill="#737373"/>
</svg>